<svg viewBox="0 0 200 200" xmlns="http://www.w3.org/2000/svg">
  <defs>
    <linearGradient id="bgGradient" x1="0%" y1="0%" x2="100%" y2="100%">
      <stop offset="0%" style="stop-color:#1A1514;stop-opacity:1" />
      <stop offset="100%" style="stop-color:#2E2926;stop-opacity:1" />
    </linearGradient>
    <linearGradient id="accentGradient" x1="0%" y1="0%" x2="100%" y2="100%">
      <stop offset="0%" style="stop-color:#D97757;stop-opacity:1" />
      <stop offset="100%" style="stop-color:#C4602F;stop-opacity:1" />
    </linearGradient>
  </defs>
  <circle cx="100" cy="100" r="100" fill="url(#bgGradient)"/>
  <g id="center-hex">
    <polygon points="100,70 125,85 125,115 100,130 75,115 75,85" fill="url(#accentGradient)" opacity="0.9"/>
    <circle cx="100" cy="100" r="12" fill="#FAF7F2" opacity="0.8"/>
  </g>
  <g id="nodes" stroke="url(#accentGradient)" stroke-width="2" fill="none">
    <circle cx="100" cy="45" r="6" fill="#D97757" opacity="0.7"/>
    <line x1="100" y1="78" x2="100" y2="51" stroke="#D97757" stroke-width="1.5" opacity="0.5"/>
    <circle cx="138" cy="56" r="6" fill="#D97757" opacity="0.7"/>
    <line x1="122" y1="82" x2="132" y2="62" stroke="#D97757" stroke-width="1.5" opacity="0.5"/>
    <circle cx="138" cy="144" r="6" fill="#D97757" opacity="0.7"/>
    <line x1="122" y1="118" x2="132" y2="138" stroke="#D97757" stroke-width="1.5" opacity="0.5"/>
    <circle cx="100" cy="155" r="6" fill="#D97757" opacity="0.7"/>
    <line x1="100" y1="122" x2="100" y2="149" stroke="#D97757" stroke-width="1.5" opacity="0.5"/>
    <circle cx="62" cy="144" r="6" fill="#D97757" opacity="0.7"/>
    <line x1="78" y1="118" x2="68" y2="138" stroke="#D97757" stroke-width="1.5" opacity="0.5"/>
    <circle cx="62" cy="56" r="6" fill="#D97757" opacity="0.7"/>
    <line x1="78" y1="82" x2="68" y2="62" stroke="#D97757" stroke-width="1.5" opacity="0.5"/>
  </g>
  <g stroke="#D97757" stroke-width="1" opacity="0.3" fill="none">
    <line x1="138" y1="56" x2="138" y2="144"/>
    <line x1="62" y1="56" x2="62" y2="144"/>
    <line x1="62" y1="56" x2="138" y2="56"/>
    <line x1="62" y1="144" x2="138" y2="144"/>
  </g>
  <rect x="50" y="25" width="100" height="2" fill="#D97757" opacity="0.6" rx="1"/>
  <circle cx="100" cy="100" r="96" fill="none" stroke="#D97757" stroke-width="1" opacity="0.2"/>
</svg>