<svg viewBox="0 0 200 200" xmlns="http://www.w3.org/2000/svg">
  <defs>
    <linearGradient id="brandGradient" x1="0%" y1="0%" x2="100%" y2="100%">
      <stop offset="0%" style="stop-color:#1a73e8;stop-opacity:1" />
      <stop offset="100%" style="stop-color:#2684fc;stop-opacity:1" />
    </linearGradient>
    <linearGradient id="accentGradient" x1="0%" y1="0%" x2="100%" y2="100%">
      <stop offset="0%" style="stop-color:#ff6b6b;stop-opacity:1" />
      <stop offset="100%" style="stop-color:#ff8787;stop-opacity:1" />
    </linearGradient>
  </defs>
  <circle cx="100" cy="100" r="95" fill="url(#brandGradient)" opacity="0.15"/>
  <g>
    <circle cx="70" cy="85" r="18" fill="none" stroke="#1a73e8" stroke-width="2.5" opacity="0.8"/>
    <path d="M 65 70 Q 60 75 65 80 Q 70 78 75 80 Q 80 75 75 70" fill="#1a73e8" opacity="0.6"/>
    <path d="M 65 95 Q 60 90 65 85 Q 70 87 75 85 Q 80 90 75 95" fill="#1a73e8" opacity="0.6"/>
    <line x1="88" y1="85" x2="112" y2="85" stroke="#ff6b6b" stroke-width="2" opacity="0.7"/>
    <circle cx="100" cy="85" r="3" fill="#ff6b6b" opacity="0.9"/>
  </g>
  <g>
    <polyline points="110,105 120,95 130,100 140,85" fill="none" stroke="#ff6b6b" stroke-width="2.5" stroke-linecap="round" stroke-linejoin="round" opacity="0.8"/>
    <circle cx="110" cy="105" r="2.5" fill="#ff6b6b" opacity="0.9"/>
    <circle cx="120" cy="95" r="2.5" fill="#ff6b6b" opacity="0.9"/>
    <circle cx="130" cy="100" r="2.5" fill="#ff6b6b" opacity="0.9"/>
    <circle cx="140" cy="85" r="2.5" fill="#ff6b6b" opacity="0.9"/>
  </g>
  <g opacity="0.7">
    <circle cx="100" cy="120" r="8" fill="none" stroke="#2684fc" stroke-width="1.5"/>
    <circle cx="95" cy="118" r="1.5" fill="#2684fc"/>
    <circle cx="100" cy="115" r="1.5" fill="#2684fc"/>
    <circle cx="105" cy="118" r="1.5" fill="#2684fc"/>
    <circle cx="100" cy="122" r="1.5" fill="#2684fc"/>
  </g>
  <circle cx="100" cy="100" r="95" fill="none" stroke="url(#accentGradient)" stroke-width="1.5" opacity="0.4" stroke-dasharray="5,5"/>
</svg>
